<svg xmlns="http://www.w3.org/2000/svg" viewBox="0 0 100 100">
  <defs>
    <linearGradient id="g" x1="0%" y1="0%" x2="100%" y2="100%">
      <stop offset="0%" style="stop-color:#00E5FF"/>
      <stop offset="100%" style="stop-color:#00B8D4"/>
    </linearGradient>
  </defs>
  <rect width="100" height="100" rx="20" fill="#000"/>
  <path d="M50 20c-8 0-14.5 6.5-14.5 14.5v10h-8v35.5c0 4.5 3.5 8 8 8h29c4.5 0 8-3.5 8-8v-35.5h-8v-10c0-8-6.5-14.5-14.5-14.5zm0 8c3.5 0 6.5 3 6.5 6.5v10h-13v-10c0-3.5 3-6.5 6.5-6.5z" fill="url(#g)"/>
  <circle cx="50" cy="58" r="4" fill="#000"/>
  <rect x="46" y="58" width="8" height="12" rx="2" fill="#000"/>
</svg>